 <!DOCTYPE svg PUBLIC "-//W3C//DTD SVG 1.1//EN" "http://www.w3.org/Graphics/SVG/1.1/DTD/svg11.dtd">
<svg id="ad3c2f64-60d5-4048-84a2-ff37a1fa76de" data-name="Layer 1" xmlns="http://www.w3.org/2000/svg" width="865.76" height="682.89" viewBox="0 0 865.76 682.89">
<defs>
<style xmlns="http://www.w3.org/1999/xhtml">*, ::after, ::before { box-sizing: border-box; }
img, svg { vertical-align: middle; }
</style>
<style xmlns="http://www.w3.org/1999/xhtml">*, body, html { -webkit-font-smoothing: antialiased; }
img, svg { max-width: 100%; }
</style>
</defs>
<path d="M668.86,22.05H386.8c-15.75,0-28.53,13-28.53,29.06V631.78c0,16,12.78,29.06,28.53,29.06H668.86c15.77,0,28.57-13,28.57-29.06V51.11A28.82,28.82,0,0,0,668.86,22.05Zm10.73,591.78c0,15.28-11.44,27.64-25.56,27.64H401.68c-14.15,0-25.59-12.36-25.59-27.64V73.12c0-31.13,11.44-32.65,25.59-32.65h50.54c2.94,0,5.34,3.34,5.34,7.47v1.79c0,9.69,5.31,9.73,11.83,9.73h116.9c6.57,0,11.83,0,11.83-9.73V47.94c0-4.13,2.37-7.47,5.35-7.47H654c14.12,0,25.56,4.14,25.56,32.65Z" fill="#2f2e41" data-secondary="true"/>
<path d="M543.78,47.35H511.9a2,2,0,0,1-2-2h0a2,2,0,0,1,2-2h31.88a2,2,0,0,1,2,2h0A2,2,0,0,1,543.78,47.35Z" fill="#fff"/>
<path d="M679,73.12V613.83c0,15.28-11.45,27.64-25.56,27.64H401.08c-14.15,0-25.6-12.36-25.6-27.64V73.12c0-31.13,11.45-32.65,25.6-32.65h50.54c2.93,0,5.34,3.34,5.34,7.47v1.79c0,9.69,5.3,9.73,11.83,9.73H585.68c6.58,0,11.83,0,11.83-9.73V47.94c0-4.13,2.37-7.47,5.36-7.47h50.56C667.54,40.47,679,44.61,679,73.12Z" fill="#fff"/>
<polygon points="402.45 90.95 397.05 85.89 402.45 80.83 403.29 81.72 398.85 85.89 403.29 90.06 402.45 90.95" fill="#dcdcdc"/>
<path d="M643.11,84.13a1.76,1.76,0,1,1-1.76,1.76A1.76,1.76,0,0,1,643.11,84.13Z" fill="#dcdcdc"/>
<path d="M649.39,84.13a1.76,1.76,0,1,1-1.77,1.76A1.76,1.76,0,0,1,649.39,84.13Z" fill="#dcdcdc"/>
<path d="M655.66,84.13a1.76,1.76,0,1,1-1.76,1.76A1.76,1.76,0,0,1,655.66,84.13Z" fill="#dcdcdc"/>
<g id="a0c8d1b9-6d25-4526-b2c3-54773c96ac98" data-name="u5Zjqx">
<path d="M442.9,52.61l-.49.49a3.7,3.7,0,0,0-.28.28,6.52,6.52,0,0,0-4.7-2,6.59,6.59,0,0,0-4.72,2l-.26-.27-.48-.49h0l0,0c.21-.18.41-.37.62-.54a7.41,7.41,0,0,1,3.32-1.55c.31-.06.63-.09.94-.13h.83c.22,0,.43,0,.65,0a7.39,7.39,0,0,1,1.73.41,8.44,8.44,0,0,1,1.18.55,7.3,7.3,0,0,1,1.12.79l.52.46Z" fill="#c8c8c8"/>
<path d="M434.26,54.91c-.25-.26-.51-.51-.77-.76a5.38,5.38,0,0,1,3.14-1.58,5.53,5.53,0,0,1,4.73,1.56l-.78.78a4.47,4.47,0,0,0-6.32,0Z" fill="#c8c8c8"/>
<path d="M439.81,55.68l-.77.77a2.28,2.28,0,0,0-3.23,0l-.77-.76A3.35,3.35,0,0,1,439.81,55.68Z" fill="#c8c8c8"/>
<path d="M438.12,57.15a.7.7,0,1,1-.7-.7A.69.69,0,0,1,438.12,57.15Z" fill="#c8c8c8"/>
</g>
<path d="M395.27,54.09a2,2,0,1,1,2,2A2,2,0,0,1,395.27,54.09Z" fill="#c8c8c8"/>
<path d="M401.61,54.09a2,2,0,1,1,2,2A2,2,0,0,1,401.61,54.09Z" fill="#c8c8c8"/>
<path d="M407.94,54.09a2,2,0,1,1,2,2A2,2,0,0,1,407.94,54.09Z" fill="#c8c8c8"/>
<path d="M414.28,54.09a2,2,0,1,1,2,2A2,2,0,0,1,414.28,54.09Z" fill="#c8c8c8"/>
<path d="M420.61,54.09a2,2,0,1,1,2,2A2,2,0,0,1,420.61,54.09Z" fill="#c8c8c8"/>
<path d="M656.23,58.49h-16.4V50.88h16.4Zm-15.54-.86h14.68V51.74H640.69Z" fill="#c8c8c8"/>
<rect x="641.2" y="52.18" width="10.56" height="5.01" fill="#c8c8c8"/>
<rect x="656.23" y="52.66" width="1.46" height="4.06" fill="#c8c8c8"/>
<rect x="396.35" y="353.63" width="81.53" height="81.53" transform="translate(874.22 788.79) rotate(180)" fill="#ccc"/>
<path d="M409.48,373.09a7.69,7.69,0,1,0,6-6A7.7,7.7,0,0,0,409.48,373.09Z" fill="#ececec"/>
<polygon points="418.95 414 477.87 414 448.41 380.96 418.95 414" fill="#c8c8c8"/>
<polygon points="396.35 414 444.99 414 420.67 392.49 396.35 414" fill="#ececec"/>
<rect x="396.35" y="414" width="81.53" height="21.16" fill="#ececec"/>
<rect x="486.47" y="353.63" width="81.53" height="81.53" transform="translate(1054.46 788.79) rotate(180)" fill="#dcdcdc"/>
<path d="M499.6,373.09a7.69,7.69,0,1,0,6-6A7.7,7.7,0,0,0,499.6,373.09Z" fill="#ececec"/>
<polygon points="509.07 414 567.99 414 538.53 380.96 509.07 414" fill="#c8c8c8"/>
<polygon points="486.47 414 535.11 414 510.79 392.49 486.47 414" fill="#ececec"/>
<rect x="486.47" y="414" width="81.53" height="21.16" fill="#ececec"/>
<rect x="576.59" y="353.63" width="81.53" height="81.53" transform="translate(1234.7 788.79) rotate(180)" fill="#dcdcdc"/>
<path d="M589.72,373.09a7.69,7.69,0,1,0,6-6A7.7,7.7,0,0,0,589.72,373.09Z" fill="#ececec"/>
<polygon points="599.19 414 658.11 414 628.65 380.96 599.19 414" fill="#c8c8c8"/>
<polygon points="576.59 414 625.23 414 600.91 392.49 576.59 414" fill="#ececec"/>
<rect x="576.59" y="414" width="81.53" height="21.16" fill="#ececec"/>
<rect x="396.35" y="443.38" width="81.53" height="81.53" transform="translate(874.22 968.28) rotate(180)" fill="#dcdcdc"/>
<path d="M409.48,462.83a7.69,7.69,0,1,0,6-6A7.7,7.7,0,0,0,409.48,462.83Z" fill="#ececec"/>
<polygon points="418.95 503.75 477.87 503.75 448.41 470.71 418.95 503.75" fill="#c8c8c8"/>
<polygon points="396.35 503.75 444.99 503.75 420.67 482.23 396.35 503.75" fill="#ececec"/>
<rect x="396.35" y="503.75" width="81.53" height="21.16" fill="#ececec"/>
<rect x="486.47" y="443.38" width="81.53" height="81.53" transform="translate(1054.46 968.28) rotate(180)" fill="#dcdcdc"/>
<path d="M499.6,462.83a7.69,7.69,0,1,0,6-6A7.7,7.7,0,0,0,499.6,462.83Z" fill="#ececec"/>
<polygon points="509.07 503.75 567.99 503.75 538.53 470.71 509.07 503.75" fill="#c8c8c8"/>
<polygon points="486.47 503.75 535.11 503.75 510.79 482.23 486.47 503.75" fill="#ececec"/>
<rect x="486.47" y="503.75" width="81.53" height="21.16" fill="#ececec"/>
<rect x="576.59" y="443.38" width="81.53" height="81.53" transform="translate(1234.7 968.28) rotate(180)" fill="#dcdcdc"/>
<path d="M589.72,462.83a7.69,7.69,0,1,0,6-6A7.7,7.7,0,0,0,589.72,462.83Z" fill="#ececec"/>
<polygon points="599.19 503.75 658.11 503.75 628.65 470.71 599.19 503.75" fill="#c8c8c8"/>
<polygon points="576.59 503.75 625.23 503.75 600.91 482.23 576.59 503.75" fill="#ececec"/>
<rect x="576.59" y="503.75" width="81.53" height="21.16" fill="#ececec"/>
<rect x="396.35" y="533.12" width="81.53" height="81.53" transform="translate(874.22 1147.77) rotate(180)" fill="#dcdcdc"/>
<path d="M409.48,552.58a7.69,7.69,0,1,0,6-6A7.7,7.7,0,0,0,409.48,552.58Z" fill="#ececec"/>
<polygon points="418.95 593.49 477.87 593.49 448.41 560.45 418.95 593.49" fill="#c8c8c8"/>
<polygon points="396.35 593.49 444.99 593.49 420.67 571.98 396.35 593.49" fill="#ececec"/>
<rect x="396.35" y="593.49" width="81.53" height="21.16" fill="#ececec"/>
<rect x="486.47" y="533.12" width="81.53" height="81.53" transform="translate(1054.46 1147.77) rotate(180)" fill="#dcdcdc"/>
<path d="M499.6,552.58a7.69,7.69,0,1,0,6-6A7.7,7.7,0,0,0,499.6,552.58Z" fill="#ececec"/>
<polygon points="509.07 593.49 567.99 593.49 538.53 560.45 509.07 593.49" fill="#c8c8c8"/>
<polygon points="486.47 593.49 535.11 593.49 510.79 571.98 486.47 593.49" fill="#ececec"/>
<rect x="486.47" y="593.49" width="81.53" height="21.16" fill="#ececec"/>
<rect x="576.59" y="533.12" width="81.53" height="81.53" transform="translate(1234.7 1147.77) rotate(180)" fill="#dcdcdc"/>
<path d="M589.72,552.58a7.69,7.69,0,1,0,6-6A7.7,7.7,0,0,0,589.72,552.58Z" fill="#ececec"/>
<polygon points="599.19 593.49 658.11 593.49 628.65 560.45 599.19 593.49" fill="#c8c8c8"/>
<polygon points="576.59 593.49 625.23 593.49 600.91 571.98 576.59 593.49" fill="#ececec"/>
<rect x="576.59" y="593.49" width="81.53" height="21.16" fill="#ececec"/>
<rect x="396.35" y="257.7" width="124.5" height="25.38" fill="#0071f2" data-primary="true"/>
<path d="M441.43,273.9v-7a.66.66,0,0,1,.66-.66H446a.67.67,0,0,1,.66.66.67.67,0,0,1-.66.66h-3.23v2.19h2.78a.66.66,0,0,1,0,1.32h-2.78v2.87a.66.66,0,0,1-.67.65A.65.65,0,0,1,441.43,273.9Z" fill="#fff"/>
<path d="M448.2,273.68a3,3,0,0,1-.82-2.1,3.11,3.11,0,0,1,.82-2.09,2.79,2.79,0,0,1,2.05-.9,2.65,2.65,0,0,1,2,.9,3,3,0,0,1,.83,2.09,2.9,2.9,0,0,1-.83,2.1,2.66,2.66,0,0,1-2,.91A2.8,2.8,0,0,1,448.2,273.68Zm.48-2.1a1.91,1.91,0,0,0,.43,1.27,1.64,1.64,0,0,0,1.14.44,1.59,1.59,0,0,0,1.1-.44,1.84,1.84,0,0,0,.47-1.27,1.78,1.78,0,0,0-.47-1.24,1.7,1.7,0,0,0-1.1-.45,1.74,1.74,0,0,0-1.14.45A1.85,1.85,0,0,0,448.68,271.58Z" fill="#fff"/>
<path d="M455.85,266.2a.67.67,0,0,1,.67.66v7a.66.66,0,0,1-1.32,0v-7A.66.66,0,0,1,455.85,266.2Z" fill="#fff"/>
<path d="M458.83,266.2a.67.67,0,0,1,.67.66v7a.67.67,0,0,1-1.33,0v-7A.67.67,0,0,1,458.83,266.2Z" fill="#fff"/>
<path d="M461.61,273.68a3,3,0,0,1-.83-2.1,3.12,3.12,0,0,1,.83-2.09,2.79,2.79,0,0,1,2.05-.9,2.61,2.61,0,0,1,2,.9,3,3,0,0,1,.84,2.09,2.86,2.86,0,0,1-.84,2.1,2.62,2.62,0,0,1-2,.91A2.8,2.8,0,0,1,461.61,273.68Zm.48-2.1a1.91,1.91,0,0,0,.43,1.27,1.62,1.62,0,0,0,1.14.44,1.59,1.59,0,0,0,1.1-.44,1.84,1.84,0,0,0,.47-1.27,1.78,1.78,0,0,0-.47-1.24,1.7,1.7,0,0,0-1.1-.45,1.72,1.72,0,0,0-1.14.45A1.85,1.85,0,0,0,462.09,271.58Z" fill="#fff"/>
<path d="M475.72,269.54l-2,4.63a.31.31,0,0,1-.05.1h0l-.06.07h0a.21.21,0,0,1-.08.06s0,0,0,0l-.1.06h0l-.09,0H473a.15.15,0,0,0-.08,0h0a.28.28,0,0,1-.11-.08h0s-.05,0-.07-.06h0l-.06-.07h0l0-.1-.87-2.06-.84,2.06-.06.1h0l-.08.07h0l-.07.07-.11.08h0l-.07,0h-.3l-.07,0h0a.38.38,0,0,1-.11-.08h0l-.07-.06h0l-.05-.07h0s0-.07-.06-.1l-2-4.63a.61.61,0,0,1,.35-.82.59.59,0,0,1,.78.36l1.41,3.21.84-2a.63.63,0,0,1,.58-.38.61.61,0,0,1,.59.38l.85,2,1.4-3.21a.6.6,0,0,1,.8-.36A.63.63,0,0,1,475.72,269.54Z" fill="#fff"/>
<rect x="533.62" y="257.7" width="124.5" height="25.38" fill="#ccc"/>
<path d="M578.33,265.81v7a.67.67,0,0,1-.67.65.65.65,0,0,1-.65-.65v-5l-1.72,2.39a.64.64,0,0,1-.54.27h0a.66.66,0,0,1-.55-.27l-1.71-2.39v5a.66.66,0,0,1-1.32,0v-7a.66.66,0,0,1,.65-.66h0a.65.65,0,0,1,.53.27l2.37,3.3,2.38-3.3a.64.64,0,0,1,.53-.27h0A.68.68,0,0,1,578.33,265.81Z" fill="#2f2e41" data-secondary="true"/>
<path d="M580.68,270.52a3,3,0,0,1,2.91-3,2.86,2.86,0,0,1,2.88,2.77v.05s0,.09,0,.11a.57.57,0,0,1-.62.48H582a1.65,1.65,0,0,0,.4.79,1.85,1.85,0,0,0,1.15.53,2,2,0,0,0,1.24-.29.68.68,0,0,1,.9,0,.56.56,0,0,1,0,.78,3.05,3.05,0,0,1-2.14.78A3,3,0,0,1,580.68,270.52Zm1.3-.58h3.38a2,2,0,0,0-1.77-1.27A1.66,1.66,0,0,0,582,269.94Z" fill="#2f2e41" data-secondary="true"/>
<path d="M588.08,271.8a.63.63,0,0,1,.9-.1,2.18,2.18,0,0,0,1.31.53,1.58,1.58,0,0,0,.81-.23.46.46,0,0,0,.21-.36.21.21,0,0,0,0-.12s-.06-.08-.16-.14a2.86,2.86,0,0,0-1-.34h0a4.2,4.2,0,0,1-1-.31,2,2,0,0,1-.83-.69,1.42,1.42,0,0,1-.2-.75,1.66,1.66,0,0,1,.71-1.31,2.5,2.5,0,0,1,1.46-.44,3.06,3.06,0,0,1,1.79.65.66.66,0,0,1,.19.89.63.63,0,0,1-.88.16,2,2,0,0,0-1.1-.44,1.17,1.17,0,0,0-.71.22.33.33,0,0,0-.19.27.16.16,0,0,0,0,.1.38.38,0,0,0,.13.12,2.66,2.66,0,0,0,.87.28h0a4.63,4.63,0,0,1,1.11.35,1.83,1.83,0,0,1,.84.7,1.51,1.51,0,0,1,.23.79,1.72,1.72,0,0,1-.75,1.39,2.78,2.78,0,0,1-1.55.47,3.49,3.49,0,0,1-2.13-.82A.63.63,0,0,1,588.08,271.8Z" fill="#2f2e41" data-secondary="true"/>
<path d="M593.83,271.8a.63.63,0,0,1,.9-.1,2.23,2.23,0,0,0,1.31.53,1.55,1.55,0,0,0,.81-.23.48.48,0,0,0,.22-.36.16.16,0,0,0,0-.12.4.4,0,0,0-.15-.14,2.94,2.94,0,0,0-1-.34h0a4.2,4.2,0,0,1-1-.31,1.94,1.94,0,0,1-.82-.69,1.42,1.42,0,0,1-.2-.75,1.68,1.68,0,0,1,.7-1.31,2.55,2.55,0,0,1,1.47-.44,3.09,3.09,0,0,1,1.79.65.66.66,0,0,1,.19.89.63.63,0,0,1-.88.16,2.05,2.05,0,0,0-1.1-.44,1.23,1.23,0,0,0-.72.22.36.36,0,0,0-.19.27.12.12,0,0,0,0,.1.29.29,0,0,0,.13.12,2.5,2.5,0,0,0,.87.28h0a4.36,4.36,0,0,1,1.11.35,1.85,1.85,0,0,1,.85.7,1.61,1.61,0,0,1,.23.79,1.73,1.73,0,0,1-.76,1.39,2.76,2.76,0,0,1-1.55.47,3.46,3.46,0,0,1-2.12-.82A.64.64,0,0,1,593.83,271.8Z" fill="#2f2e41" data-secondary="true"/>
<path d="M605,270.53v2.34a.63.63,0,0,1-.63.63.64.64,0,0,1-.62-.51,2.72,2.72,0,0,1-1.59.51,2.78,2.78,0,0,1-2-.87,3.07,3.07,0,0,1-.81-2.1,3,3,0,0,1,.81-2.1,2.76,2.76,0,0,1,2-.89,2.72,2.72,0,0,1,1.59.52.64.64,0,0,1,.62-.52.63.63,0,0,1,.63.64Zm-1.26,0a1.75,1.75,0,0,0-.47-1.23,1.47,1.47,0,0,0-1.11-.49,1.46,1.46,0,0,0-1.11.49,1.78,1.78,0,0,0-.45,1.23,1.82,1.82,0,0,0,.45,1.23,1.51,1.51,0,0,0,1.11.47,1.53,1.53,0,0,0,1.11-.47A1.79,1.79,0,0,0,603.78,270.53Z" fill="#2f2e41" data-secondary="true"/>
<path d="M613.14,270.56v2.22a2.87,2.87,0,0,1-2.87,2.86,2.78,2.78,0,0,1-1.25-.3.63.63,0,0,1-.28-.86.64.64,0,0,1,.85-.3,1.43,1.43,0,0,0,.68.17,1.61,1.61,0,0,0,1.57-1.28,2.75,2.75,0,0,1-1.57.48,2.71,2.71,0,0,1-2-.91,2.94,2.94,0,0,1-.84-2.1,3.1,3.1,0,0,1,.84-2.12,2.8,2.8,0,0,1,2-.88,2.7,2.7,0,0,1,1.6.5.65.65,0,0,1,.64-.5.63.63,0,0,1,.63.63v2.39Zm-1.28,0a1.85,1.85,0,0,0-.45-1.21,1.48,1.48,0,0,0-1.14-.52,1.41,1.41,0,0,0-1.09.52,1.72,1.72,0,0,0-.48,1.21,1.7,1.7,0,0,0,.48,1.23,1.41,1.41,0,0,0,1.09.49,1.48,1.48,0,0,0,1.14-.49A1.82,1.82,0,0,0,611.86,270.54Z" fill="#2f2e41" data-secondary="true"/>
<path d="M615.27,270.52a3,3,0,0,1,2.91-3,2.86,2.86,0,0,1,2.88,2.77v.05s0,.09,0,.11a.57.57,0,0,1-.62.48h-3.79a1.65,1.65,0,0,0,.4.79,1.85,1.85,0,0,0,1.15.53,2,2,0,0,0,1.24-.29.66.66,0,0,1,.89,0,.54.54,0,0,1,0,.78,3,3,0,0,1-2.13.78A3,3,0,0,1,615.27,270.52Zm1.3-.58h3.37a1.92,1.92,0,0,0-1.76-1.27A1.66,1.66,0,0,0,616.57,269.94Z" fill="#2f2e41" data-secondary="true"/>
<path d="M557.44,324.45a13.75,13.75,0,0,1-4.07,1.7,14.1,14.1,0,1,1,4.07-1.7Z" fill="#2f2e41" data-secondary="true"/>
<path d="M550,329.44a17.33,17.33,0,1,1,4.07-.5A16.88,16.88,0,0,1,550,329.44Zm.07-32.6a15.6,15.6,0,1,0,3.67,30.75,15.07,15.07,0,0,0,4.49-1.88h0a15.61,15.61,0,0,0-8.17-28.87Z" fill="#0071f2" data-primary="true"/>
<path d="M554.31,310.83a4.3,4.3,0,1,1-4.29-4.29A4.3,4.3,0,0,1,554.31,310.83Z" fill="#fff"/>
<path d="M557.44,322.68v1.77a13.75,13.75,0,0,1-4.07,1.7,14.06,14.06,0,0,1-10.78-1.7v-1.77a7.43,7.43,0,0,1,14.85,0Z" fill="#fff"/>
<path d="M420.76,324.45a13.75,13.75,0,0,1-4.07,1.7,14.1,14.1,0,1,1,4.07-1.7Z" fill="#0071f2" data-primary="true"/>
<path d="M413.3,329.44a17,17,0,1,1,9-2.55,17.23,17.23,0,0,1-9,2.55Zm.07-32.6a15.6,15.6,0,1,0,8.17,28.87h0a15.61,15.61,0,0,0-8.17-28.87Z" fill="#0071f2" data-primary="true"/>
<circle cx="413.34" cy="310.83" r="4.29" fill="#fff"/>
<path d="M420.76,322.68v1.77a13.75,13.75,0,0,1-4.07,1.7,14,14,0,0,1-10.77-1.7v-1.77a7.42,7.42,0,1,1,14.84,0Z" fill="#fff"/>
<path d="M466.32,324.45a13.75,13.75,0,0,1-4.07,1.7,14.1,14.1,0,1,1,4.07-1.7Z" fill="#2f2e41" data-secondary="true"/>
<path d="M458.86,329.44a17,17,0,1,1,9-2.55,17.23,17.23,0,0,1-9,2.55Zm.07-32.6a15.36,15.36,0,0,0-3.73.46,15.58,15.58,0,0,0-4.5,28.4,15.61,15.61,0,0,0,16.4,0h0a15.61,15.61,0,0,0-8.17-28.87Z" fill="#0071f2" data-primary="true"/>
<path d="M463.19,310.83a4.3,4.3,0,1,1-4.29-4.29A4.3,4.3,0,0,1,463.19,310.83Z" fill="#fff"/>
<path d="M466.32,322.68v1.77a13.75,13.75,0,0,1-4.07,1.7,14,14,0,0,1-10.77-1.7v-1.77a7.42,7.42,0,0,1,14.84,0Z" fill="#fff"/>
<path d="M511.88,324.45a13.75,13.75,0,0,1-4.07,1.7,14.1,14.1,0,1,1,4.07-1.7Z" fill="#ccc"/>
<path d="M504.42,329.44a17.23,17.23,0,1,1,4.07-.5A16.67,16.67,0,0,1,504.42,329.44Zm.07-32.6a15.6,15.6,0,1,0,8.17,28.87h0a15.61,15.61,0,0,0-8.17-28.87Z" fill="#0071f2" data-primary="true"/>
<path d="M508.75,310.83a4.3,4.3,0,1,1-4.29-4.29A4.3,4.3,0,0,1,508.75,310.83Z" fill="#fff"/>
<path d="M511.88,322.68v1.77a13.75,13.75,0,0,1-4.07,1.7,14.06,14.06,0,0,1-10.78-1.7v-1.77a7.43,7.43,0,0,1,14.85,0Z" fill="#fff"/>
<path d="M603,324.45a13.75,13.75,0,0,1-4.07,1.7,14.1,14.1,0,1,1,4.07-1.7Z" fill="#0071f2" data-primary="true"/>
<path d="M595.54,329.44a17.23,17.23,0,1,1,4.07-.5A16.88,16.88,0,0,1,595.54,329.44Zm.07-32.6a15.6,15.6,0,1,0,3.67,30.75,15.18,15.18,0,0,0,4.49-1.88h0a15.61,15.61,0,0,0-8.17-28.87Z" fill="#0071f2" data-primary="true"/>
<path d="M599.87,310.83a4.3,4.3,0,1,1-4.29-4.29A4.3,4.3,0,0,1,599.87,310.83Z" fill="#fff"/>
<path d="M603,322.68v1.77a13.75,13.75,0,0,1-4.07,1.7,14.06,14.06,0,0,1-10.78-1.7v-1.77a7.43,7.43,0,0,1,14.85,0Z" fill="#fff"/>
<path d="M648.56,324.45a13.75,13.75,0,0,1-4.07,1.7,14.1,14.1,0,1,1,4.07-1.7Z" fill="#2f2e41" data-secondary="true"/>
<path d="M641.1,329.44a17.23,17.23,0,1,1,4.07-.5A16.88,16.88,0,0,1,641.1,329.44Zm.07-32.6a15.6,15.6,0,1,0,3.67,30.75,15.18,15.18,0,0,0,4.49-1.88h0a15.61,15.61,0,0,0-8.17-28.87Z" fill="#0071f2" data-primary="true"/>
<path d="M645.43,310.83a4.3,4.3,0,1,1-4.3-4.29A4.3,4.3,0,0,1,645.43,310.83Z" fill="#fff"/>
<path d="M648.56,322.68v1.77a13.75,13.75,0,0,1-4.07,1.7,14.06,14.06,0,0,1-10.78-1.7v-1.77a7.43,7.43,0,0,1,14.85,0Z" fill="#fff"/>
<path d="M515.46,130.72a.21.21,0,0,1,.2-.21h1.7a1.72,1.72,0,0,1,0,3.43l-1.48,0v2.36a.21.21,0,0,1-.22.2.2.2,0,0,1-.2-.2Zm1.9,2.82a1.32,1.32,0,0,0,1.3-1.31,1.3,1.3,0,0,0-1.3-1.3h-1.48v2.61Z" fill="#2f2e41" data-secondary="true"/>
<path d="M522,132.32a2.1,2.1,0,1,1-2,2.1A2.05,2.05,0,0,1,522,132.32Zm0,3.79a1.7,1.7,0,1,0-1.58-1.69A1.64,1.64,0,0,0,522,136.11Z" fill="#2f2e41" data-secondary="true"/>
<path d="M525.3,135.65a.21.21,0,0,1,.3,0,2.19,2.19,0,0,0,1.28.49,1.24,1.24,0,0,0,.8-.26.61.61,0,0,0,.32-.51.68.68,0,0,0-.3-.52,2.21,2.21,0,0,0-.89-.31h0a2.41,2.41,0,0,1-.95-.33.87.87,0,0,1-.46-.76,1,1,0,0,1,.46-.82,1.82,1.82,0,0,1,1-.28,2.31,2.31,0,0,1,1.25.45.22.22,0,0,1,.06.29.2.2,0,0,1-.28.06,1.89,1.89,0,0,0-1-.42,1.29,1.29,0,0,0-.8.24.65.65,0,0,0-.27.48.52.52,0,0,0,.24.43,2.25,2.25,0,0,0,.86.29h0a3,3,0,0,1,1,.34,1.06,1.06,0,0,1,.47.86,1.09,1.09,0,0,1-.48.85,1.75,1.75,0,0,1-1,.33,2.47,2.47,0,0,1-1.55-.6A.18.18,0,0,1,525.3,135.65Z" fill="#2f2e41" data-secondary="true"/>
<path d="M531.41,132.52a.22.22,0,0,1-.2.21h-.55v3.06a.33.33,0,0,0,.31.31.24.24,0,0,1,.22.22.23.23,0,0,1-.22.2.71.71,0,0,1-.73-.73v-3.06h-.53c-.2,0-.2-.1-.2-.21s0-.2.2-.2h.53v-1.57a.22.22,0,0,1,.2-.2.23.23,0,0,1,.22.2v1.57h.55A.22.22,0,0,1,531.41,132.52Z" fill="#2f2e41" data-secondary="true"/>
<path d="M533.08,135.65a.2.2,0,0,1,.29,0,2.25,2.25,0,0,0,1.29.49,1.24,1.24,0,0,0,.8-.26.61.61,0,0,0,.32-.51.68.68,0,0,0-.3-.52,2.21,2.21,0,0,0-.9-.31h0a2.53,2.53,0,0,1-1-.33.88.88,0,0,1-.45-.76,1.06,1.06,0,0,1,.45-.82,1.85,1.85,0,0,1,1-.28,2.31,2.31,0,0,1,1.26.45.22.22,0,0,1,.06.29.21.21,0,0,1-.29.06,1.83,1.83,0,0,0-1-.42,1.33,1.33,0,0,0-.8.24.63.63,0,0,0-.26.48.52.52,0,0,0,.24.43,2.25,2.25,0,0,0,.86.29h0a3,3,0,0,1,1,.34,1.06,1.06,0,0,1,.47.86,1.09,1.09,0,0,1-.48.85,1.75,1.75,0,0,1-1.05.33,2.45,2.45,0,0,1-1.55-.6A.18.18,0,0,1,533.08,135.65Z" fill="#2f2e41" data-secondary="true"/>
<path d="M559.56,130.72a.22.22,0,0,1,.2-.21h3.11a.22.22,0,0,1,.21.21.21.21,0,0,1-.21.21H560v2.38h2.53a.21.21,0,0,1,.21.22.2.2,0,0,1-.21.2H560v2.59a.2.2,0,0,1-.21.2.21.21,0,0,1-.21-.2Z" fill="#2f2e41" data-secondary="true"/>
<path d="M565.83,132.32a2.1,2.1,0,1,1-2,2.1A2.06,2.06,0,0,1,565.83,132.32Zm0,3.79a1.7,1.7,0,1,0-1.58-1.69A1.65,1.65,0,0,0,565.83,136.11Z" fill="#2f2e41" data-secondary="true"/>
<path d="M569.45,130.72a.22.22,0,0,1,.21-.21.21.21,0,0,1,.21.21v5.6a.2.2,0,0,1-.21.2.21.21,0,0,1-.21-.2Z" fill="#2f2e41" data-secondary="true"/>
<path d="M571.59,130.72a.21.21,0,0,1,.2-.21.22.22,0,0,1,.22.21v5.6a.21.21,0,0,1-.22.2.2.2,0,0,1-.2-.2Z" fill="#2f2e41" data-secondary="true"/>
<path d="M575.46,132.32a2.1,2.1,0,1,1-2,2.1A2.06,2.06,0,0,1,575.46,132.32Zm0,3.79a1.7,1.7,0,1,0-1.58-1.69A1.64,1.64,0,0,0,575.46,136.11Z" fill="#2f2e41" data-secondary="true"/>
<path d="M580.09,136.49a.15.15,0,0,1-.09-.1l-1.58-3.75a.22.22,0,0,1,.1-.27.21.21,0,0,1,.27.11l1.4,3.31,1-2.31a.23.23,0,0,1,.4,0l1,2.31,1.39-3.31a.22.22,0,0,1,.27-.11.2.2,0,0,1,.11.27l-1.57,3.74a.25.25,0,0,1-.08.1.13.13,0,0,1-.1,0h0a.17.17,0,0,1-.16-.13h0l-1-2.33-1,2.32h0a.2.2,0,0,1-.18.13h-.08S580.1,136.5,580.09,136.49Z" fill="#2f2e41" data-secondary="true"/>
<path d="M585.25,134.43a2,2,0,0,1,4.07-.16h0v0a.2.2,0,0,1-.21.19h-3.45a1.65,1.65,0,0,0,1.63,1.61,1.58,1.58,0,0,0,1.36-.76.19.19,0,0,1,.27-.07.21.21,0,0,1,.07.29,2,2,0,0,1-1.7,1A2.07,2.07,0,0,1,585.25,134.43Zm.44-.34h3.18a1.61,1.61,0,0,0-3.18,0Z" fill="#2f2e41" data-secondary="true"/>
<path d="M590.59,132.53a.21.21,0,0,1,.22-.2.2.2,0,0,1,.2.2v.93a.21.21,0,0,1,.06-.1,2,2,0,0,1,1.68-1,.19.19,0,0,1,.2.2.21.21,0,0,1-.2.21,1.53,1.53,0,0,0-1.22.68,3.67,3.67,0,0,0-.51,1,.23.23,0,0,0,0,.07v1.85a.2.2,0,0,1-.2.2.21.21,0,0,1-.22-.2Z" fill="#2f2e41" data-secondary="true"/>
<path d="M594.07,135.65a.2.2,0,0,1,.29,0,2.19,2.19,0,0,0,1.28.49,1.24,1.24,0,0,0,.8-.26.61.61,0,0,0,.32-.51.66.66,0,0,0-.3-.52,2.21,2.21,0,0,0-.89-.31h0a2.41,2.41,0,0,1-.95-.33.87.87,0,0,1-.46-.76,1,1,0,0,1,.46-.82,1.82,1.82,0,0,1,1-.28,2.28,2.28,0,0,1,1.25.45.21.21,0,0,1,.06.29.2.2,0,0,1-.28.06,1.89,1.89,0,0,0-1-.42,1.29,1.29,0,0,0-.8.24.65.65,0,0,0-.27.48.52.52,0,0,0,.24.43,2.32,2.32,0,0,0,.86.29h0a3,3,0,0,1,1,.34,1,1,0,0,1,.47.86,1.06,1.06,0,0,1-.48.85,1.73,1.73,0,0,1-1.05.33,2.5,2.5,0,0,1-1.55-.6A.19.19,0,0,1,594.07,135.65Z" fill="#2f2e41" data-secondary="true"/>
<path d="M620.82,130.72a.22.22,0,0,1,.2-.21h3.11a.21.21,0,0,1,.2.21.2.2,0,0,1-.2.21h-2.89v2.38h2.53a.21.21,0,0,1,.21.22.2.2,0,0,1-.21.2h-2.53v2.59a.2.2,0,0,1-.21.2.21.21,0,0,1-.21-.2Z" fill="#2f2e41" data-secondary="true"/>
<path d="M627.08,132.32a2.1,2.1,0,1,1-2,2.1A2.06,2.06,0,0,1,627.08,132.32Zm0,3.79a1.7,1.7,0,1,0-1.58-1.69A1.64,1.64,0,0,0,627.08,136.11Z" fill="#2f2e41" data-secondary="true"/>
<path d="M630.71,130.72a.21.21,0,0,1,.21-.21.22.22,0,0,1,.21.21v5.6a.21.21,0,0,1-.21.2.2.2,0,0,1-.21-.2Z" fill="#2f2e41" data-secondary="true"/>
<path d="M632.85,130.72a.21.21,0,0,1,.2-.21.22.22,0,0,1,.22.21v5.6a.21.21,0,0,1-.22.2.2.2,0,0,1-.2-.2Z" fill="#2f2e41" data-secondary="true"/>
<path d="M636.71,132.32a2.1,2.1,0,1,1-2,2.1A2.06,2.06,0,0,1,636.71,132.32Zm0,3.79a1.7,1.7,0,1,0-1.57-1.69A1.64,1.64,0,0,0,636.71,136.11Z" fill="#2f2e41" data-secondary="true"/>
<path d="M641.34,136.49a.16.16,0,0,1-.08-.1l-1.58-3.75a.22.22,0,0,1,.1-.27.21.21,0,0,1,.27.11l1.4,3.31,1-2.31a.23.23,0,0,1,.4,0l1,2.31,1.39-3.31a.22.22,0,0,1,.27-.11.21.21,0,0,1,.11.27L644,136.38a.25.25,0,0,1-.08.1.14.14,0,0,1-.1,0h0a.19.19,0,0,1-.16-.13h0l-1-2.33-1,2.32h0a.2.2,0,0,1-.18.13h-.08Z" fill="#2f2e41" data-secondary="true"/>
<path d="M646.8,131.15a.21.21,0,0,1,.2-.21.22.22,0,0,1,.22.21v.2a.22.22,0,0,1-.22.22.21.21,0,0,1-.2-.22Zm0,1.37a.19.19,0,0,1,.2-.2.21.21,0,0,1,.22.2v3.8a.21.21,0,0,1-.22.2.2.2,0,0,1-.2-.2Z" fill="#2f2e41" data-secondary="true"/>
<path d="M652.2,134a1.29,1.29,0,0,0-1.29-1.29A1.32,1.32,0,0,0,649.6,134v2.32a.18.18,0,0,1,0,.1.17.17,0,0,1-.15.07h-.06a.18.18,0,0,1-.13-.11,0,0,0,0,1,0,0v-3.86a.2.2,0,0,1,.21-.2.19.19,0,0,1,.19.2v.4a1.72,1.72,0,0,1,3,1.1v2.29a.21.21,0,0,1-.42,0Z" fill="#2f2e41" data-secondary="true"/>
<path d="M658.13,136.19a2,2,0,0,1-2,2,2.21,2.21,0,0,1-.88-.19.22.22,0,0,1-.08-.28.19.19,0,0,1,.27-.09,1.59,1.59,0,0,0,2.26-1.41v-.52a1.9,1.9,0,0,1-1.57.83,2.09,2.09,0,0,1,0-4.18,1.92,1.92,0,0,1,1.57.82v-.62a.2.2,0,0,1,.21-.2.2.2,0,0,1,.2.2Zm-.41-1.79a1.57,1.57,0,1,0-1.57,1.69A1.62,1.62,0,0,0,657.72,134.4Z" fill="#2f2e41" data-secondary="true"/>
<circle cx="440.25" cy="151.51" r="43.27" transform="translate(-14.42 251.78) rotate(-31.43)" fill="#ccc"/>
<path d="M480.3,167.91a43.33,43.33,0,0,1-33.12,26.32c-.24,0-.5.08-.75.1a41.91,41.91,0,0,1-6.18.45c-.88,0-1.76,0-2.62-.09-.49,0-1-.05-1.45-.1a42.58,42.58,0,0,1-16-4.75A43.19,43.19,0,0,1,397.33,157c2.46-5.17,9.16-4.46,11.56-10.28.16-.38.33-.84.51-1.4,1.19-3.62,3-10.77,6.28-17.25a.42.42,0,0,0,.07-.13c2.59-5.06,6.11-9.67,11-11.85a21.84,21.84,0,0,1,8.86-1.74h0a29.06,29.06,0,0,1,3.36.2h0a29.47,29.47,0,0,1,5.85,1.25c2,.19,10.47-1.07,16.41,6.49,1.64,2.09,3,5.46,4.18,9.29a158.75,158.75,0,0,1,3.81,17s0,0,0,0c.5,2.81.92,5.18,1.26,6.77h0v0c.09.43.17.79.26,1.1,1.29,4.82,7.7,5.36,9.38,10.95C480.23,167.58,480.26,167.76,480.3,167.91Z" fill="#2f2e41" data-secondary="true"/>
<path d="M481.38,165q-.22.75-.51,1.5a6.74,6.74,0,0,0-.94-1.9,20.64,20.64,0,0,0-4.64-4.59l-2.61-2.11a7.34,7.34,0,0,1-2.14-2.5,7.7,7.7,0,0,0,2.35,2.23l2.78,1.88a21.39,21.39,0,0,1,5.08,4.54A6.8,6.8,0,0,1,481.38,165Z" fill="#2f2e41" data-secondary="true"/>
<path d="M415.68,128a56.89,56.89,0,0,0-1.9,5.51l-1.88,5.72a50.73,50.73,0,0,1-2.28,5.61c-.07.14-.16.28-.22.41a14.06,14.06,0,0,1-1.4,2.27,4.56,4.56,0,0,1-1.3,1.1c-.45.28-.9.5-1.36.73-1.85.86-3.68,1.59-5.36,2.57a11,11,0,0,0-2.9,2.38c-.05-.5-.07-1-.07-1.53a12.75,12.75,0,0,1,2.37-1.83,58.36,58.36,0,0,1,5.41-2.73c.44-.21.88-.43,1.29-.66a2.33,2.33,0,0,0,.54-.38,1.72,1.72,0,0,0,.44-.45,12.61,12.61,0,0,0,1.52-2.42c.9-1.74,1.63-3.59,2.4-5.42C412.52,135.28,413.7,131.48,415.68,128Z" fill="#2f2e41" data-secondary="true"/>
<path d="M460.35,189.83a43,43,0,0,1-13.17,4.4c-.24,0-.5.08-.75.1a41.91,41.91,0,0,1-6.18.45c-.88,0-1.76,0-2.62-.09-.49,0-1-.05-1.45-.1a42.58,42.58,0,0,1-16-4.75,68.07,68.07,0,0,1,4.71-7.66,9.28,9.28,0,0,1,.61-.83c.45-.64.93-1.25,1.4-1.8a21.54,21.54,0,0,1,7-5.75c5.69-2.74,11.36-1.16,16.5,2.68a16.3,16.3,0,0,1,1.58,1.83C453.81,180.62,456.9,184.87,460.35,189.83Z" fill="#0071f2" data-primary="true"/>
<path d="M445.21,179.24a.73.73,0,0,0-.66.81.72.72,0,0,0,.81.66.75.75,0,0,0,.66-.81A.76.76,0,0,0,445.21,179.24Zm-9.74,1h-.1a.73.73,0,0,0-.64.81.7.7,0,0,0,.79.65.72.72,0,0,0,.66-.69v-.12A.74.74,0,0,0,435.47,180.28Zm-9.93,1.05a0,0,0,0,0,0,0s0,0,0,0c-.19.26-.38.51-.59.77v0s0,0,0,0a.74.74,0,0,0,.8.6.72.72,0,0,0,.65-.81A.7.7,0,0,0,425.54,181.33Zm14-8.5a.72.72,0,0,0-.65.82.73.73,0,0,0,.81.65.75.75,0,0,0,.65-.81A.74.74,0,0,0,439.56,172.83Zm7.08,20.1a.73.73,0,0,0-.65.81.71.71,0,0,0,.44.59c.25,0,.51-.07.75-.1a.67.67,0,0,0,.27-.64A.72.72,0,0,0,446.64,192.93Zm-9.82,1a.69.69,0,0,0-.64.62c.48,0,1,.09,1.45.1v-.06A.74.74,0,0,0,436.82,194Zm14-8.5a.75.75,0,0,0-.66.82.73.73,0,1,0,1.45-.16A.73.73,0,0,0,450.84,185.47Zm-9.84,1a.75.75,0,0,0-.66.81.73.73,0,0,0,.81.66.72.72,0,0,0,.66-.81A.75.75,0,0,0,441,186.51Zm-9.83,1a.76.76,0,0,0-.66.81.72.72,0,0,0,.82.65.73.73,0,0,0,.65-.81A.75.75,0,0,0,431.17,187.55Zm-9.83,1a.74.74,0,0,0,.16,1.47.71.71,0,0,0,.64-.81A.74.74,0,0,0,421.34,188.58Z" fill="#fff"/>
<path d="M434.71,179.22c.6,1.49,9.57,10.37,16.59,8.93,2.29-.47.25-13.07.25-13.07l.07-1,.86-13.49-16.85-7.42-2.42-1s0,3.7.06,8.32c0,.21,0,.43,0,.66s0,.5,0,.75c0,.69,0,1.39,0,2.09,0,.54,0,1.06.05,1.62s0,1.11.06,1.67A86.88,86.88,0,0,0,434.71,179.22Z" fill="#f9b499"/>
<path d="M433.27,160.58a27.14,27.14,0,0,0,18.35,13.54l.86-13.49-16.85-7.42-2.42-1S433.22,156,433.27,160.58Z" fill="#f4a48e"/>
<path d="M469.07,140.34c2.51,23.6-11.33,27.77-16.42,28.31-4.62.48-20.41,1.55-25.35-21.65s5.23-31.84,15.74-33.51S466.55,116.75,469.07,140.34Z" fill="#f9b499"/>
<path d="M428,147.47a9.54,9.54,0,0,0,5.64-7.58c19.7-4.6,23.69-18.24,23.69-18.24,5.95,9.55,9.71,10.61,10.59,12.06,0,0-.22-9.31-4.63-15.52a19.19,19.19,0,0,0-22.47-7c-5.9,2-9.92,8.35-9.92,8.35s-6.41,2.06-8,7.9C420.25,137.26,428,147.47,428,147.47Z" fill="#2f2e41" data-secondary="true"/>
<path d="M457.47,120.8a16.38,16.38,0,0,1-2.52,7.67,21,21,0,0,1-5.6,5.93l-1.73,1.1c-.59.35-1.22.62-1.82.93a26.2,26.2,0,0,1-3.79,1.5c-1.3.39-2.64.65-3.95,1-1.35.16-2.68.35-4,.48,1.31-.32,2.63-.58,3.93-.87s2.58-.72,3.84-1.18a29.45,29.45,0,0,0,7.07-3.6,21.53,21.53,0,0,0,5.54-5.6A18.78,18.78,0,0,0,457.47,120.8Z" fill="#2f2e41" data-secondary="true"/>
<path d="M431.24,148.41s-5.32-7.3-8.65-5.39.79,12.57,4.76,14a4,4,0,0,0,5.33-2.26Z" fill="#f9b499"/>
<path d="M483.53,151.51A42.77,42.77,0,0,1,481.38,165q-.22.75-.51,1.5v0c-.18.48-.37,1-.57,1.43a43.33,43.33,0,0,1-33.12,26.32c-.24,0-.5.08-.75.1a41.91,41.91,0,0,1-6.18.45c-.88,0-1.76,0-2.62-.09-.49,0-1-.05-1.45-.1a42.58,42.58,0,0,1-16-4.75A43.19,43.19,0,0,1,397.33,157a25.71,25.71,0,0,1-.25-2.63c-.05-.5-.07-1-.07-1.53s0-.85,0-1.28a43.28,43.28,0,0,1,86.55,0Z" fill="none"/>
<path d="M207.43,219s8,12.54,10.26,16.35,1.9,12.22,1.9,12.22l9.17,9.14-10.89,8.41s-11.46-7.63-13.73-8.77a22.61,22.61,0,0,0-7.26-1.91c-1.15,0-11.83-13.37-11.83-13.37l-6.35-4.31,3.76-10.44,16.79,5Z" fill="#f9b499"/>
<polygon points="168.34 220.69 206.12 256.75 219.86 244.74 186.09 212.67 168.34 220.69" fill="#2f2e41" data-secondary="true"/>
<path d="M201.92,217.56a2.82,2.82,0,0,0-2.62,2.29c-.78,4.18-2.08,12.77.45,13.5A3.78,3.78,0,0,0,205,230c.47-2.4,3.34-9.06,2.38-11C206.54,217.53,204.61,217.5,201.92,217.56Z" fill="#f9b499"/>
<path d="M176.35,225.86s-5.22,9.71-1.15,12.59,4-2.88,5.23-6.3S181.5,224.14,176.35,225.86Z" fill="#f9b499"/>
<path d="M186.09,235.57s-4.59,9.17-2.87,12,4,0,5.22-2.87a13.75,13.75,0,0,0,1.73-5.72C190.19,234,186.09,235.57,186.09,235.57Z" fill="#f9b499"/>
<path d="M190.84,239.67s-4.57,9.14-2.87,12,4,0,5.22-2.87a13.07,13.07,0,0,0,1.7-5.72C195,238.08,190.84,239.67,190.84,239.67Z" fill="#f9b499"/>
<path d="M196.28,244.19s-4.57,9.17-2.85,12,4,0,5.22-2.87a13.75,13.75,0,0,0,1.73-5.72C200.4,242.62,196.28,244.19,196.28,244.19Z" fill="#f9b499"/>
<polygon points="227.87 251.42 211.47 268.21 254.95 303.7 259.15 274.32 227.87 251.42" fill="#0071f2" data-primary="true"/>
<path d="M249.05,324s-8.25,30.37-7.83,35c.31,2.73.48,5.48.52,8.23,0,0-23.19,28.33-35,53.55s-12.87,39.67-9.27,42.23,52.51,24.2,57.66,25.25l5.22,1,41.78,14.41,4.13,4.65,8.22-2.61c3.61-2.06,5.67-16,6.71-21.62s3.61-8.25,1-8.75a31,31,0,0,0-7.21,0s1.54-3.11-1-3.11h-7.32s-33.94-13.89-39.63-17-20.09-10.81-20.09-10.81l33.61-24.18s40.69-23.69,46.35-33.48,8.75-28.33,8.75-36.06-56.14-33.95-65.91-33.95S249.55,318.9,249.05,324Z" fill="#2f2e41" data-secondary="true"/>
<path d="M249.05,324s-8.25,30.37-7.83,35c.31,2.73.48,5.48.52,8.23,0,0-23.19,28.33-35,53.55s-12.87,39.67-9.27,42.23,52.51,24.2,57.66,25.25l5.22,1,41.78,14.41,4.13,4.65,8.22-2.61c3.61-2.06,5.67-16,6.71-21.62s3.61-8.25,1-8.75a31,31,0,0,0-7.21,0s1.54-3.11-1-3.11h-7.32s-33.94-13.89-39.63-17-20.09-10.81-20.09-10.81l33.61-24.18s40.69-23.69,46.35-33.48,8.75-28.33,8.75-36.06-56.14-33.95-65.91-33.95S249.55,318.9,249.05,324Z" opacity="0.2"/>
<path d="M322.17,475.45s28.72,1,32.95,3.08,4.13,9.27,4.13,14.41-4.13,17-3.09,22.67,1.23,12.4,2,20.6c1.57,15.43-2.95,17-5.64,16.48-9.79-2.07-10.84-13.92-15.46-25.23s-7.21-17.52-7.21-17.52l-15.4-4.18S317.54,483.17,322.17,475.45Z" fill="#0071f2" data-primary="true"/>
<path d="M355.12,478.53a29.92,29.92,0,0,0-7.31-1.41A97.33,97.33,0,0,1,351,501.19c0,16,3.11,34.5,1.57,46.35-.26,1.91-.52,3.5-.78,4.91a7,7,0,0,0,.78.24c2.61.57,7.21-1.05,5.64-16.48-.81-8.2-1-14.94-2-20.6s3.09-17.53,3.09-22.67S359.25,480.59,355.12,478.53Z" fill="#0071f2" data-primary="true"/>
<path d="M355.12,478.53a29.92,29.92,0,0,0-7.31-1.41A97.33,97.33,0,0,1,351,501.19c0,16,3.11,34.5,1.57,46.35-.26,1.91-.52,3.5-.78,4.91a7,7,0,0,0,.78.24c2.61.57,7.21-1.05,5.64-16.48-.81-8.2-1-14.94-2-20.6s3.09-17.53,3.09-22.67S359.25,480.59,355.12,478.53Z" fill="#fff" opacity="0.2"/>
<path d="M255.34,367.36s6.3,38.94,4,61.81-.55,73.85,1.72,88.16.58,57.24.58,64.68a74.78,74.78,0,0,1-.58,10.89s-6.29-.57-5.72,2.85a47.74,47.74,0,0,1,.58,6.86,31.32,31.32,0,0,0,13.73,6.3c8.59,1.72,17.76,3.44,19.46,1.15s1.15-9.72,1.15-9.72a9.08,9.08,0,0,0,2.87-6.87v-7s8-33.19,7.44-53.22-4.6-31.49-3.45-36.56S324,413.11,324,413.11s8-17.18,9.74-28a40,40,0,0,0-6.22-27c-3.44-4.57-56.09-18.88-56.09-18.88" fill="#2f2e41" data-secondary="true"/>
<path d="M269.86,189.07s-14,29.29-14,47.57-5.51,49.28-5.51,57.77-7.65,21.25-4.26,28.56,22.93,7.21,24.63,7.21,12.77.42,14.88-.42,6-70.95,6-87.08.83-57.45.41-62.47S275,179.72,269.86,189.07Z" fill="#ccc"/>
<path d="M293.13,160a153.94,153.94,0,0,0-20.6,63.53c-4,38.36-14.89,106.46-6.87,113.91s28,12.58,37.18,17.18,24.05,12,29.2,14.88,13.73-.57,13.73-.57,6.87-60.69,4.6-87.59-5.72-72.12-16.61-93.87S296,157.16,293.13,160Z" fill="#0071f2" data-primary="true"/>
<polygon points="294.28 354.65 287.41 362.09 298.85 377.52 305.71 364.36 294.28 354.65" fill="#f9b499"/>
<path d="M294.28,198.94s-9.74,25.2-4.6,45.8,18.91,63.53,18.91,63.53L291.4,354.65l17.19,15.46s36.06-59.54,36.06-67.56-8-89.88-11.47-100.74-9.16-21.18-17.73-21.18" fill="#0071f2" data-primary="true"/>
<path d="M294.28,198.94s-9.74,25.2-4.6,45.8,18.91,63.53,18.91,63.53L291.4,354.65l17.19,15.46s36.06-59.54,36.06-67.56-8-89.88-11.47-100.74-9.16-21.18-17.73-21.18" opacity="0.2"/>
<path d="M258.22,604.21s-4,1.72-4,4.57-3.42,18.28-3.42,18.28-28,9.71-33.21,10.86-6.87,10.31-5.22,13.06,20.6,5.22,37.21,5.74,36.06.57,37.78-2.3,1.12-30.92,1.12-30.92l.58-13.73A167.78,167.78,0,0,1,258.22,604.21Z" fill="#0071f2" data-primary="true"/>
<path d="M211.89,649.54a4.65,4.65,0,0,0,.52,1.59c1.73,2.87,20.61,5.22,37.21,5.75s36.07.57,37.79-2.3a10.73,10.73,0,0,0,.65-3.21C263.49,655.57,228.05,651.73,211.89,649.54Z" fill="#0071f2" data-primary="true"/>
<path d="M211.89,649.54a4.65,4.65,0,0,0,.52,1.59c1.73,2.87,20.61,5.22,37.21,5.75s36.07.57,37.79-2.3a10.73,10.73,0,0,0,.65-3.21C263.49,655.57,228.05,651.73,211.89,649.54Z" fill="#fff" opacity="0.2"/>
<path d="M222.51,163.29s11.16,15,16.3,15.62,15.46-9.72,15.46-9.72l17.18,15.44,19.46-29.77-10.86-12s5.22-32-2.3-49.23-52.05-25.74-66.49-4c0,0-12,10.86-10.86,26.32.86,11.59,1.84,15.42,3.42,19a40.06,40.06,0,0,0,3.73,6.64Z" fill="#f9b499"/>
<polygon points="254.19 169.17 262.18 161.1 260.72 174.98 254.19 169.17" fill="#f4a48e"/>
<path d="M262.26,140.55s10.21.78,18,.44c.94-7.07,3.81-32.66-2.61-47.37-7.44-17.18-52.23-25.74-66.41-4a38.53,38.53,0,0,0-9.34,14.78c.81,1.33,2,2.09,3.63.65,4-3.42,16-4.57,17.18,1.73s0,12,6.87,10.31a15.41,15.41,0,0,1,10.86.57s4.57,8,7.44,6.3.58-5.23,4-9.17,16.58,2.3,17.16,10.89S262.26,140.55,262.26,140.55Z" fill="#2f2e41" data-secondary="true"/>
<polygon points="289.39 149.56 264.77 186.93 275.81 201.37 300.44 157.63 289.39 149.56" fill="#0071f2" data-primary="true"/>
<polygon points="289.39 149.56 264.77 186.93 275.81 201.37 300.44 157.63 289.39 149.56" fill="#0071f2" data-primary="true"/>
<path d="M518.42,126a2.11,2.11,0,0,1-.81-.76,3,3,0,0,1-.38-1.21h1.33a1.11,1.11,0,0,0,.31.7,1,1,0,0,0,.69.25.88.88,0,0,0,.73-.32,1.29,1.29,0,0,0,.26-.88v-.68a1.36,1.36,0,0,0-.25-.88.83.83,0,0,0-.7-.32,1,1,0,0,0-.56.17,1.16,1.16,0,0,0-.4.47h-1.23v-4.47h4.24v1.28h-2.91V121a1.21,1.21,0,0,1,.47-.27,1.88,1.88,0,0,1,.57-.09,2.1,2.1,0,0,1,1.14.29,1.87,1.87,0,0,1,.72.84,3.42,3.42,0,0,1,.25,1.35v.68a3,3,0,0,1-.28,1.34,1.94,1.94,0,0,1-.8.85,2.5,2.5,0,0,1-1.26.29A2.33,2.33,0,0,1,518.42,126Z" fill="#2f2e41" data-secondary="true"/>
<path d="M523.34,123.78l2.6-5.66h1.45l-2.54,5.6h3.81V125h-5.32Zm3.38-2.33H528v4.78h-1.31Z" fill="#2f2e41" data-secondary="true"/>
<path d="M530.87,126.05a2,2,0,0,1-.87-.75,2.47,2.47,0,0,1-.39-1.18H531a1.19,1.19,0,0,0,.19.5.88.88,0,0,0,.36.3,1.38,1.38,0,0,0,.52.1,1,1,0,0,0,.77-.27,1,1,0,0,0,.28-.77v-.22a1.25,1.25,0,0,0-.25-.83.85.85,0,0,0-.69-.29h-.63v-1.27h.63a.71.71,0,0,0,.59-.25,1.09,1.09,0,0,0,.21-.71v-.2a.89.89,0,0,0-.22-.66.84.84,0,0,0-.64-.23.93.93,0,0,0-.45.1,1,1,0,0,0-.34.32,1.58,1.58,0,0,0-.2.53h-1.36a3,3,0,0,1,.41-1.21,2.12,2.12,0,0,1,.83-.77,2.46,2.46,0,0,1,1.14-.26,2.29,2.29,0,0,1,1.64.55,2,2,0,0,1,.58,1.56v.19a1.69,1.69,0,0,1-.31,1,1.77,1.77,0,0,1-.86.64,1.52,1.52,0,0,1,1,.63,2.16,2.16,0,0,1,.35,1.26v.19a2.54,2.54,0,0,1-.28,1.21,1.81,1.81,0,0,1-.81.76,2.74,2.74,0,0,1-1.27.26A2.91,2.91,0,0,1,530.87,126.05Z" fill="#2f2e41" data-secondary="true"/>
<path d="M566.67,125l2.81-3.71a2.72,2.72,0,0,0,.34-.59,1.58,1.58,0,0,0,.12-.57h0a.83.83,0,0,0-.25-.63,1,1,0,0,0-.71-.22,1,1,0,0,0-.71.27,1.18,1.18,0,0,0-.32.76h-1.37a3,3,0,0,1,.39-1.25,2.14,2.14,0,0,1,.82-.79A2.5,2.5,0,0,1,569,118a2.88,2.88,0,0,1,1.27.25,1.75,1.75,0,0,1,.8.72,2.29,2.29,0,0,1,.27,1.14h0a2.88,2.88,0,0,1-.18,1,3.82,3.82,0,0,1-.52,1l-2.17,2.85h2.92v1.28h-4.69Z" fill="#2f2e41" data-secondary="true"/>
<path d="M572.25,123.78l2.61-5.66h1.45l-2.54,5.6h3.81V125h-5.33Zm3.39-2.33H577v4.78h-1.31Z" fill="#2f2e41" data-secondary="true"/>
<path d="M580.05,126a2.11,2.11,0,0,1-.81-.76,3,3,0,0,1-.38-1.21h1.33a1.11,1.11,0,0,0,.31.7,1,1,0,0,0,.69.25.88.88,0,0,0,.73-.32,1.34,1.34,0,0,0,.26-.88v-.68a1.36,1.36,0,0,0-.25-.88.84.84,0,0,0-.7-.32,1,1,0,0,0-.56.17,1.16,1.16,0,0,0-.4.47H579v-4.47h4.24v1.28h-2.91V121a1.21,1.21,0,0,1,.47-.27,1.88,1.88,0,0,1,.57-.09,2,2,0,0,1,1.13.29,1.83,1.83,0,0,1,.73.84,3.43,3.43,0,0,1,.24,1.35v.68a3,3,0,0,1-.27,1.34,1.94,1.94,0,0,1-.8.85,2.5,2.5,0,0,1-1.26.29A2.33,2.33,0,0,1,580.05,126Z" fill="#2f2e41" data-secondary="true"/>
<path d="M586.18,126a2.17,2.17,0,0,1-.88-.79,2.22,2.22,0,0,1-.31-1.19v-.13a2.24,2.24,0,0,1,.32-1.15,2.17,2.17,0,0,1,.85-.8,1.9,1.9,0,0,1-.73-.68,1.73,1.73,0,0,1-.27-.93v-.2a2.17,2.17,0,0,1,.29-1.12,2,2,0,0,1,.82-.74,2.73,2.73,0,0,1,1.24-.27,2.68,2.68,0,0,1,1.23.27,1.9,1.9,0,0,1,.82.74,2.08,2.08,0,0,1,.29,1.12v.2a1.67,1.67,0,0,1-.28.94,1.91,1.91,0,0,1-.74.67,2,2,0,0,1,.86.81,2.1,2.1,0,0,1,.33,1.14v.13a2.22,2.22,0,0,1-.31,1.19,2.11,2.11,0,0,1-.88.79,3.05,3.05,0,0,1-1.32.27A3.1,3.1,0,0,1,586.18,126Zm2-1.15a1,1,0,0,0,.42-.39,1.25,1.25,0,0,0,.14-.59v-.08a1.2,1.2,0,0,0-.14-.57,1,1,0,0,0-.42-.38,1.38,1.38,0,0,0-.62-.13,1.39,1.39,0,0,0-.63.13,1,1,0,0,0-.41.39,1.05,1.05,0,0,0-.15.57v.08a1.15,1.15,0,0,0,.15.59,1.1,1.1,0,0,0,.41.39,1.42,1.42,0,0,0,.63.13A1.26,1.26,0,0,0,588.13,124.88Zm-.09-3.56a.92.92,0,0,0,.36-.37,1.25,1.25,0,0,0,.12-.56v-.08a1.08,1.08,0,0,0-.12-.52,1,1,0,0,0-.36-.36,1.15,1.15,0,0,0-.53-.12,1.19,1.19,0,0,0-.54.12.87.87,0,0,0-.35.36,1,1,0,0,0-.13.53v.08a1.09,1.09,0,0,0,.13.55.84.84,0,0,0,.35.37,1.08,1.08,0,0,0,.54.13A1,1,0,0,0,588,121.32Z" fill="#2f2e41" data-secondary="true"/>
<path d="M630.78,125l2.81-3.71a2.72,2.72,0,0,0,.34-.59,1.58,1.58,0,0,0,.12-.57h0a.83.83,0,0,0-.25-.63,1,1,0,0,0-.71-.22,1,1,0,0,0-.71.27,1.18,1.18,0,0,0-.32.76h-1.38a3.17,3.17,0,0,1,.4-1.25,2.14,2.14,0,0,1,.82-.79,2.5,2.5,0,0,1,1.18-.27,2.88,2.88,0,0,1,1.27.25,1.75,1.75,0,0,1,.8.72,2.29,2.29,0,0,1,.27,1.14h0a2.88,2.88,0,0,1-.18,1,3.82,3.82,0,0,1-.52,1l-2.17,2.85h2.92v1.28h-4.69Z" fill="#2f2e41" data-secondary="true"/>
<path d="M637.41,125.7a2.32,2.32,0,0,1-.6-1.7v-3.68a2.27,2.27,0,0,1,.61-1.7,2.39,2.39,0,0,1,1.76-.61,2.35,2.35,0,0,1,1.76.61,2.29,2.29,0,0,1,.61,1.7V124a2.31,2.31,0,0,1-.61,1.7,2.9,2.9,0,0,1-3.53,0Zm2.55-1a1.4,1.4,0,0,0,.25-.9v-3.3a1.45,1.45,0,0,0-.25-.91.93.93,0,0,0-.78-.31,1,1,0,0,0-.79.31,1.45,1.45,0,0,0-.25.91v3.3a1.4,1.4,0,0,0,.25.9,1,1,0,0,0,.79.32A.93.93,0,0,0,640,124.71Z" fill="#2f2e41" data-secondary="true"/>
<path d="M643,123.78l2.6-5.66h1.46l-2.55,5.6h3.81V125H643Zm3.38-2.33h1.32v4.78h-1.32Z" fill="#2f2e41" data-secondary="true"/>
<rect x="397.33" y="205.87" width="89.14" height="1.8" fill="#ccc"/>
<rect x="397.33" y="215.61" width="61.27" height="1.8" fill="#ccc"/>
<rect x="397.74" y="225.34" width="55.76" height="1.8" fill="#ccc"/>
<line x1="400.85" y1="334.35" x2="425.83" y2="334.35" fill="none" stroke="#2f2e41" stroke-miterlimit="10"/>
<line x1="446.41" y1="334.35" x2="471.39" y2="334.35" fill="none" stroke="#2f2e41" stroke-miterlimit="10"/>
<line x1="491.96" y1="334.35" x2="516.95" y2="334.35" fill="none" stroke="#2f2e41" stroke-miterlimit="10"/>
<line x1="537.52" y1="334.35" x2="562.51" y2="334.35" fill="none" stroke="#2f2e41" stroke-miterlimit="10"/>
<line x1="583.09" y1="334.35" x2="608.07" y2="334.35" fill="none" stroke="#2f2e41" stroke-miterlimit="10"/>
<line x1="628.64" y1="334.35" x2="653.63" y2="334.35" fill="none" stroke="#2f2e41" stroke-miterlimit="10"/>
</svg>